<svg width="69" height="69" viewBox="0 0 69 69" fill="none" xmlns="http://www.w3.org/2000/svg">
<circle cx="34.4883" cy="34.4883" r="33.4883" fill="white" stroke="#434343" stroke-width="2"/>
<path d="M27.4074 23.2606C27.4068 24.4505 26.685 25.5212 25.5821 25.968C24.4793 26.4147 23.2158 26.1481 22.3873 25.2941C21.5588 24.44 21.3309 23.1689 21.811 22.0802C22.2911 20.9915 23.3833 20.3025 24.5726 20.3382C26.1523 20.3857 27.4081 21.6803 27.4074 23.2606ZM27.495 28.3456H21.6502V46.6398H27.495V28.3456ZM36.7299 28.3456H30.9143V46.6398H36.6714V37.0397C36.6714 31.6917 43.6413 31.1949 43.6413 37.0397V46.6398H49.4131V35.0525C49.4131 26.0369 39.097 26.373 36.6714 30.8004L36.7299 28.3456Z" fill="black"/>
</svg>
